<?xml version="1.0" encoding="UTF-8"?>
<svg id="uuid-940f034c-2ca2-4973-98aa-f3767342b828" data-name="Capa 1" xmlns="http://www.w3.org/2000/svg" xmlns:xlink="http://www.w3.org/1999/xlink" viewBox="0 0 800 800">
  <defs>
    <style>
      .uuid-7e3301bc-6686-42fe-87e8-afc5f38fdb56 {
        fill: #bdbcbc;
      }

      .uuid-7e3301bc-6686-42fe-87e8-afc5f38fdb56, .uuid-df1c1758-dd7b-4882-9296-43d2302b7415, .uuid-e6225512-6b29-47c3-861b-b43565572057, .uuid-e6d3ad54-ae86-4dd0-a7ee-7fdd15bc7bc1, .uuid-463b4c3c-6191-4574-a249-c6d86e6cfa94, .uuid-dbdf053f-a95f-417a-9016-6008e5ff5354, .uuid-d54140a2-3656-4064-a6c5-d42d4b92f148 {
        stroke-width: 0px;
      }

      .uuid-df1c1758-dd7b-4882-9296-43d2302b7415 {
        fill: #1d1d1b;
      }

      .uuid-e6225512-6b29-47c3-861b-b43565572057 {
        fill: url(#uuid-127f497e-7af1-407b-86a6-6168dcc8fccd);
      }

      .uuid-e6d3ad54-ae86-4dd0-a7ee-7fdd15bc7bc1 {
        fill: #bccdeb;
      }

      .uuid-463b4c3c-6191-4574-a249-c6d86e6cfa94 {
        fill: #0069b4;
      }

      .uuid-dbdf053f-a95f-417a-9016-6008e5ff5354 {
        fill: #6f9ed4;
      }

      .uuid-d54140a2-3656-4064-a6c5-d42d4b92f148 {
        fill: #fff;
      }
    </style>
    <linearGradient id="uuid-127f497e-7af1-407b-86a6-6168dcc8fccd" x1="796.66" y1="647.25" x2="407.91" y2="681.75" gradientTransform="translate(1078.53) rotate(-180) scale(1 -1)" gradientUnits="userSpaceOnUse">
      <stop offset="0" stop-color="#1d1d1b" stop-opacity=".3"/>
      <stop offset="1" stop-color="#1d1d1b" stop-opacity="0"/>
    </linearGradient>
  </defs>
  <g>
    <path class="uuid-e6225512-6b29-47c3-861b-b43565572057" d="M316.05,732.84s37.91-34.29,149.05-43.39c111.17-9.11,232.2,0,232.2,0l-370.17-120.75-11.08,164.13Z"/>
    <path class="uuid-463b4c3c-6191-4574-a249-c6d86e6cfa94" d="M315.14,732.83s55.01-72.87,195.64-158.3c114.31-69.44,268.97-73.38,268.97-73.38L509.75,194.12s-97.53,77.87-139.83,230.55c-42.31,152.71-54.78,308.16-54.78,308.16Z"/>
    <path class="uuid-dbdf053f-a95f-417a-9016-6008e5ff5354" d="M314.9,733.88s67.36-117.49,140.24-176.19c88.49-71.28,207.39-106.08,207.39-106.08L371.86,153.09s-102.49,82.27-137.32,236.83c-34.85,154.57,80.36,343.96,80.36,343.96Z"/>
    <path class="uuid-e6d3ad54-ae86-4dd0-a7ee-7fdd15bc7bc1" d="M313.89,732.22s24.87-75.9,67.6-152.89c55.5-100.01,155.23-173.82,155.23-173.82L239.52,106.98s-64.68,92.22-99.52,246.79c-34.83,154.57,173.89,378.45,173.89,378.45Z"/>
    <path class="uuid-7e3301bc-6686-42fe-87e8-afc5f38fdb56" d="M315.14,734.23s-1.17-101.42,15.45-164.87c40.03-152.85,99.48-195.19,99.48-195.19L124.12,68.25s-21.82,182.08-8.53,339.98c13.26,157.89,199.55,326.01,199.55,326.01Z"/>
    <path class="uuid-d54140a2-3656-4064-a6c5-d42d4b92f148" d="M332.73,353.39L43.35,75.49S-37.4,206.43,21.52,365.74c58.93,159.29,293.55,367.41,293.55,367.41,0,0-29-41.79-26.87-189.07,1.91-130.72,44.53-190.7,44.53-190.7Z"/>
  </g>
  <path class="uuid-df1c1758-dd7b-4882-9296-43d2302b7415" d="M68.01,716.05v-379.96h68.87c26.97,0,46.19,1.36,57.61,4.08,11.45,2.71,21.36,7.28,29.75,13.7,9.87,7.44,17.65,18.19,23.32,32.24,5.68,14.04,8.5,29.77,8.5,47.2,0,18.46-3.28,34.47-9.87,48.1-6.58,13.62-16.62,25.17-30.12,34.65,16.46,10.65,28.68,23.51,36.66,38.58,7.98,15.06,11.97,32.83,11.97,53.31,0,13.53-1.71,26.27-5.18,38.19-3.47,11.94-8.48,22.8-15.06,32.62-9.38,13.37-22.5,22.94-39.36,28.68-16.87,5.75-41.67,8.63-74.42,8.63h-62.69ZM130.21,490.41h8.15c20.23,0,34.87-4.18,43.92-12.56,9.05-8.37,13.58-22.04,13.58-40.98,0-17.44-4.08-30.08-12.22-37.96-8.14-7.86-21.44-11.79-39.85-11.79-3.78,0-6.64.03-8.53.12-1.88.09-3.56.21-5.05.38v102.79ZM130.21,661.48c1.81.17,3.66.3,5.55.39,1.89.07,4.56.11,8.03.11,21.04,0,36.11-4.53,45.17-13.59,9.05-9.03,13.57-24.05,13.57-45.04s-4.43-35.32-13.31-44.54c-8.89-9.23-23.05-13.83-42.47-13.83-2.94,0-8.05.35-15.29,1.01h-1.23v115.49Z"/>
</svg>